<svg width="160" height="152" viewBox="0 0 160 152" fill="none" xmlns="http://www.w3.org/2000/svg">
<path d="M80 25.3448C109.586 25.3448 133.571 48.0394 133.571 76.0345V136.862C133.571 142.461 128.775 147 122.857 147H37.1429C31.2256 147 26.4286 142.461 26.4286 136.862V76.0345C26.4286 48.0394 50.4134 25.3448 80 25.3448ZM80 25.3448V0M42.5 116.586H117.5M5 81.1034V121.655M155 81.1034V121.655M58.5714 96.3103C52.6541 96.3103 47.8571 91.7714 47.8571 86.1724C47.8571 80.5734 52.6541 76.0345 58.5714 76.0345C64.4887 76.0345 69.2857 80.5734 69.2857 86.1724C69.2857 91.7714 64.4887 96.3103 58.5714 96.3103ZM101.429 96.3103C95.5113 96.3103 90.7143 91.7714 90.7143 86.1724C90.7143 80.5734 95.5113 76.0345 101.429 76.0345C107.346 76.0345 112.143 80.5734 112.143 86.1724C112.143 91.7714 107.346 96.3103 101.429 96.3103Z" stroke="#4056CA" stroke-width="10"/>
</svg>
