<svg width="83" height="28" viewBox="0 0 83 28" fill="none" xmlns="http://www.w3.org/2000/svg">
<path d="M20.5762 21V1.2H23.8162V4.98H23.8882C24.0562 3.708 24.5962 2.7 25.5082 1.956C26.4202 1.212 27.6442 0.84 29.1802 0.84C31.2442 0.84 32.8282 1.464 33.9322 2.712C35.0602 3.936 35.6242 5.688 35.6242 7.968V9.66H32.3842V7.968C32.3842 5.088 30.9802 3.648 28.1722 3.648C26.7562 3.648 25.6762 4.056 24.9322 4.872C24.1882 5.688 23.8162 6.864 23.8162 8.4V21H20.5762ZM48.9301 21.36C46.6021 21.36 44.7181 20.664 43.2781 19.272C41.8621 17.856 41.1541 15.912 41.1541 13.44V8.76C41.1541 6.288 41.8621 4.356 43.2781 2.964C44.7181 1.548 46.6021 0.84 48.9301 0.84C50.4901 0.84 51.8461 1.152 52.9981 1.776C54.1741 2.4 55.0861 3.276 55.7341 4.404C56.3821 5.532 56.7061 6.864 56.7061 8.4V11.928H44.3221V13.8C44.3221 15.264 44.7421 16.428 45.5821 17.292C46.4221 18.132 47.5381 18.552 48.9301 18.552C50.1301 18.552 51.1141 18.324 51.8821 17.868C52.6741 17.388 53.1541 16.752 53.3221 15.96H56.5621C56.3461 17.616 55.5421 18.936 54.1501 19.92C52.7581 20.88 51.0181 21.36 48.9301 21.36ZM44.3221 9.408H53.5381V8.4C53.5381 6.84 53.1301 5.64 52.3141 4.8C51.5221 3.936 50.3941 3.504 48.9301 3.504C47.4661 3.504 46.3261 3.936 45.5101 4.8C44.7181 5.64 44.3221 6.84 44.3221 8.4V9.408ZM63.028 27.48V1.2H66.268V4.98H66.304C66.472 3.684 67.036 2.676 67.996 1.956C68.956 1.212 70.18 0.84 71.668 0.84C73.66 0.84 75.244 1.5 76.42 2.82C77.596 4.116 78.184 5.904 78.184 8.184V13.98C78.184 16.26 77.596 18.06 76.42 19.38C75.244 20.7 73.66 21.36 71.668 21.36C70.18 21.36 68.956 20.988 67.996 20.244C67.036 19.5 66.472 18.492 66.304 17.22H66.196L66.268 21.72V27.48H63.028ZM70.588 18.552C71.956 18.552 73.024 18.192 73.792 17.472C74.56 16.752 74.944 15.588 74.944 13.98V8.22C74.944 6.588 74.56 5.424 73.792 4.728C73.024 4.008 71.956 3.648 70.588 3.648C69.268 3.648 68.212 4.068 67.42 4.908C66.652 5.748 66.268 6.912 66.268 8.4V13.8C66.268 15.288 66.652 16.452 67.42 17.292C68.212 18.132 69.268 18.552 70.588 18.552Z" fill="#818BC1"/>
<g clip-path="url(#clip0_907_306)">
<path fill-rule="evenodd" clip-rule="evenodd" d="M6.73077 12.2189V6.85824C6.73077 6.11809 7.33344 5.51807 8.07692 5.51807C8.8204 5.51807 9.42308 6.11809 9.42308 6.85824V12.2189H14.8077C15.5512 12.2189 16.1538 12.8189 16.1538 13.5591C16.1538 14.2993 15.5512 14.8993 14.8077 14.8993H9.42308V20.2599C9.42308 21.0001 8.8204 21.6001 8.07692 21.6001C7.33344 21.6001 6.73077 21.0001 6.73077 20.2599V14.8993H1.34615C0.6027 14.8993 0 14.2993 0 13.5591C0 12.8189 0.6027 12.2189 1.34615 12.2189H6.73077Z" fill="#818BC1"/>
</g>
<defs>
<clipPath id="clip0_907_306">
<rect width="16.1538" height="16.0821" fill="white" transform="translate(0 5.51807)"/>
</clipPath>
</defs>
</svg>
