<svg width="151" height="95" viewBox="0 0 151 95" fill="none" xmlns="http://www.w3.org/2000/svg">
<path opacity="0.15" d="M26.8889 92L13 25.5385L51.1944 50.4615L75.5 20L99.8056 50.4615L138 25.5385L124.111 92H26.8889Z" fill="white"/>
<path d="M137.643 25.25L123.833 92H27.1667L13.3571 25.25M137.643 25.25L99.6667 50.2812L75.5 19.6875M137.643 25.25C143.363 25.25 148 21.5144 148 16.9062C148 12.2981 143.363 8.5625 137.643 8.5625C131.923 8.5625 127.286 12.2981 127.286 16.9062C127.286 21.5144 131.923 25.25 137.643 25.25ZM13.3571 25.25L51.3333 50.2812L75.5 19.6875M13.3571 25.25C19.0773 25.25 23.7143 21.5144 23.7143 16.9062C23.7143 12.2981 19.0773 8.5625 13.3571 8.5625C7.63703 8.5625 3 12.2981 3 16.9062C3 21.5144 7.63703 25.25 13.3571 25.25ZM75.5 19.6875C81.2199 19.6875 85.8571 15.9519 85.8571 11.3438C85.8571 6.73561 81.2199 3 75.5 3C69.7801 3 65.1429 6.73561 65.1429 11.3438C65.1429 15.9519 69.7801 19.6875 75.5 19.6875Z" stroke="#D7A525" stroke-width="5" stroke-linecap="round" stroke-linejoin="round"/>
</svg>
