<svg width="90" height="90" viewBox="0 0 90 90" fill="none" xmlns="http://www.w3.org/2000/svg">
<path d="M73 76.2774C73 62.1295 56.6667 59 45 59C33.3333 59 17 62.1295 17 76.2774M87 45C87 68.1961 68.1961 87 45 87C21.8041 87 3 68.1961 3 45C3 21.8041 21.8041 3 45 3C68.1961 3 87 21.8041 87 45ZM59 31C59 38.7322 52.7322 45 45 45C37.2678 45 31 38.7322 31 31C31 23.268 37.2678 17 45 17C52.7322 17 59 23.268 59 31Z" stroke="#0075FF" stroke-width="5" stroke-linecap="round" stroke-linejoin="round"/>
<ellipse cx="45" cy="30.9999" rx="12.1333" ry="11.8788" fill="#0075FF"/>
<ellipse cx="45" cy="73.0001" rx="27.0667" ry="12.303" fill="#0075FF"/>
</svg>
