<svg width="41" height="38" viewBox="0 0 41 38" fill="none" xmlns="http://www.w3.org/2000/svg">
<path d="M11.4535 15.9069V35M11.4535 15.9069L3 15.9069V35H11.4535M11.4535 15.9069L22.4338 4.33361C23.4757 3.23544 25.1149 2.76334 26.6682 3.11414L26.7686 3.13684C29.6043 3.77732 30.8817 6.76244 29.2605 8.95964L24.1338 15.9069H33.7717C36.439 15.9069 38.4396 18.1114 37.9165 20.4744L35.3804 31.9302C34.9852 33.7152 33.2506 35 31.2357 35H11.4535" stroke="#0075FF" stroke-width="5" stroke-linecap="round" stroke-linejoin="round"/>
<path d="M18.5418 16.9725C18.1809 16.9725 17.989 17.9063 17.92 18.1261C17.5513 19.2991 17.3228 20.5066 16.9015 21.6651C16.8819 21.7191 16.7962 21.851 16.7874 21.7943C16.6697 21.0379 16.8787 20.1417 17.0067 19.4089C17.2693 17.9049 17.587 16.3871 18.0041 14.9177C18.1587 14.3729 18.392 13.2486 18.9234 12.8868C19.3189 12.6175 19.2718 14.9561 19.2628 15.0739C19.1547 16.4934 18.6983 18.0441 17.5925 19.0214C17.3469 19.2384 16.6455 19.6739 16.3427 19.3518C15.4976 18.4528 16.1705 16.8633 16.4329 15.891" stroke="#0075FF" stroke-width="3" stroke-linecap="round"/>
<path d="M17.1359 15.0799C17.1057 15.9091 17.0275 16.8314 16.5831 17.5553C16.5584 17.5956 16.3641 17.9343 16.3367 17.7176C16.2737 17.2183 16.3168 16.6503 16.3728 16.1554C16.4626 15.3614 16.6828 14.5969 17.1779 13.9563C17.3417 13.7444 17.7365 13.2905 18.0491 13.2653C18.1223 13.2594 18.1062 13.4097 18.0912 13.4816C18.0429 13.7127 17.9051 14.1118 17.8208 14.3108C17.5021 15.0635 17.044 15.7717 16.541 16.4137C16.4472 16.5335 15.0496 18.1239 14.8406 17.7115C14.5518 17.1417 14.6942 16.1294 15.0389 15.6146C15.0421 15.6099 15.3281 15.2822 15.3393 15.3022C15.4188 15.4434 15.1424 15.9842 15.099 16.0893C14.7844 16.8516 14.3142 17.5397 13.9814 18.2883C13.485 19.4054 15.2328 16.1849 15.9402 15.188C16.3644 14.5902 16.8492 14.0845 17.4964 13.734C17.5193 13.7216 18.0073 13.4311 18.0551 13.5718C18.1441 13.8333 17.8398 14.27 17.7307 14.473C17.5389 14.8299 17.3275 15.179 17.1599 15.5485C17.0305 15.8338 17.6392 15.1426 17.8509 14.9116C18.7426 13.9386 19.6252 12.9584 20.5366 12.0036C21.0361 11.4803 21.5288 10.9296 22.0808 10.4594C22.1813 10.3738 22.3012 10.2726 22.249 10.4834C22.0044 11.4711 21.16 12.2826 20.4405 12.9529C20.3395 13.0469 20.1289 13.3551 20.122 13.2173C20.1167 13.1114 20.1972 13.0188 20.2422 12.9229C20.4309 12.5205 20.6954 11.9943 20.8851 11.619C21.7866 9.83535 22.657 8.01774 23.715 6.31962C24.1298 5.65394 24.632 4.94017 25.145 4.33685C26.165 3.13737 25.1483 4.39447 25.9502 3.56177" stroke="#0075FF" stroke-width="3" stroke-linecap="round"/>
<path d="M26.491 3.18335C26.2471 3.90444 25.8358 4.59067 25.4455 5.24123C25.2576 5.55442 25.0528 6.02143 24.7906 6.28368C24.7748 6.29945 24.8615 6.25572 24.9107 6.37982C25.1409 6.95971 24.9471 7.839 24.7125 8.3746C24.5875 8.65987 24.4258 8.93274 24.2678 9.20076C24.2313 9.26279 24.0681 9.50286 24.2198 9.25183C24.7554 8.36533 25.2951 7.52116 26.1965 6.96564C26.2679 6.92166 26.5798 6.69324 26.7012 6.74032C26.8415 6.79469 26.7014 7.29356 26.6832 7.3712C26.5807 7.80834 26.3939 8.21972 26.1845 8.61494C26.0795 8.81323 25.8711 9.35424 25.6498 9.47414C25.5555 9.52523 25.6467 9.25842 25.6648 9.15269C25.7439 8.69046 25.9091 8.25688 26.0944 7.82784C26.2842 7.3884 26.4873 6.95043 26.7433 6.54505C26.7582 6.52143 26.9359 6.18658 26.9085 6.40986C26.6894 8.19942 25.4354 9.50112 24.1657 10.6758C21.3859 13.2476 18.3169 15.5169 14.9428 17.237C14.7677 17.3263 14.7956 17.3673 15.0059 17.3181C15.7184 17.1516 16.3162 16.6201 16.8295 16.1314C17.9328 15.0809 18.9027 13.8998 20.0349 12.8779C20.2901 12.6476 20.7382 12.1922 21.0894 12.0547C21.206 12.0091 21.1288 12.3096 21.0954 12.4303C20.7696 13.6059 20.1206 14.7128 19.5152 15.7589C18.3077 17.8457 16.9263 19.8102 15.5857 21.8094C15.0702 22.5781 16.626 20.278 17.1659 19.5262C17.8586 18.5617 18.6082 17.6511 19.5422 16.9095C19.7751 16.7247 19.9996 16.5607 20.2633 16.4289C20.2799 16.4205 20.4564 16.3002 20.4495 16.4319C20.4342 16.7227 20.1699 17.1292 20.05 17.3692C19.6613 18.1464 19.2411 18.9107 18.7882 19.6524C18.3894 20.3054 17.982 20.9537 17.5805 21.6051C17.4753 21.7758 17.3419 21.9862 17.22 22.1519C17.1847 22.1998 17.118 22.3324 17.0938 22.278C17.0305 22.1356 17.2112 21.5582 17.229 21.4909C17.5008 20.4627 17.9587 19.4939 18.4697 18.5648C18.9094 17.7655 19.4044 17.0071 20.0139 16.3267C20.1097 16.2197 20.5326 15.6797 20.3263 16.2216C19.3812 18.7048 17.9808 21.061 16.4569 23.2274C16.0142 23.8568 15.4888 24.6469 14.7986 25.0539C14.5152 25.221 14.4514 24.7751 14.4081 24.5973C14.0067 22.95 13.9845 21.0279 14.2248 19.3549C14.2267 19.3418 14.341 18.4644 14.4772 18.4417C14.5374 18.4316 14.4837 18.5639 14.4802 18.6249C14.4659 18.8718 14.4529 19.021 14.4201 19.2798C14.2886 20.3169 14.0293 21.373 13.5909 22.3261C13.4732 22.5821 13.4083 22.6047 13.5188 22.3021C13.722 21.7458 13.9602 21.2006 14.1918 20.6558C14.3159 20.3637 14.4263 19.9642 14.6274 19.7094C14.6756 19.6484 14.6905 19.8615 14.6754 19.9378C14.5902 20.3708 14.4377 20.7838 14.2849 21.1965C13.8286 22.4286 13.3089 23.648 12.7077 24.8166C12.3501 25.5116 11.969 26.2632 11.4339 26.8444C10.8509 27.4777 10.6641 25.6382 10.6288 25.3784C10.3713 23.4834 10.4846 21.5302 10.4846 19.6223" stroke="#0075FF" stroke-width="3" stroke-linecap="round"/>
<path d="M10.5386 19.5141C10.5029 20.2398 10.3302 20.9428 10.115 21.635C9.78114 22.7093 9.42036 23.9172 8.7211 24.8195C8.71074 24.8329 8.46899 25.1688 8.37561 25.1319C8.2439 25.0799 8.19682 24.5565 8.18935 24.5071C7.99068 23.192 8.00681 21.7633 8.19236 20.4484C8.22982 20.1829 8.28515 19.9076 8.41767 19.6703C8.42198 19.6626 8.53657 19.4738 8.51981 19.6162C8.43619 20.3271 8.05316 21.0844 7.78078 21.7372C7.74378 21.8259 7.21661 23.0669 7.06879 22.7466C6.6541 21.8481 6.53056 20.652 6.44992 19.6793C6.40305 19.1139 6.33903 18.3149 6.74133 17.8437C6.9509 17.5983 7.11551 17.6771 7.10784 17.9819C7.09042 18.6746 6.83389 19.3948 6.45293 19.9707C6.10064 20.5032 6.21259 19.5125 6.21259 19.3218C6.21259 19.0194 6.21259 18.1121 6.21259 18.4145C6.21259 18.9802 6.19858 19.5463 6.13448 20.1089C6.06091 20.7547 5.80687 21.4104 5.77999 22.0556C5.77644 22.1406 5.80858 22.1555 5.89415 22.1247C6.41532 21.9371 6.94431 21.5901 7.42629 21.3406C10.5394 19.729 13.721 18.2774 16.9256 16.8584C19.5876 15.6796 22.2833 14.5323 24.8356 13.1241C25.1998 12.9232 25.3725 12.7363 25.2652 13.2473C25.205 13.5344 24.9907 14.0183 25.0399 14.3138C25.052 14.3862 25.4456 13.6928 25.4755 13.6078C25.6399 13.1408 25.6005 13.0042 25.124 13.3465C23.6018 14.4399 22.1962 15.6924 20.7229 16.8493C20.2888 17.1902 19.6474 17.8483 19.0796 17.9819C19.0056 17.9993 19.1013 17.8297 19.1306 17.7596C19.2766 17.4113 19.444 17.0757 19.6414 16.7532C19.8819 16.3602 20.1525 15.9808 20.4885 15.6627C20.5516 15.603 20.9505 15.2102 21.0894 15.2481C21.2198 15.2837 19.5323 17.9783 19.4491 18.1111C18.4722 19.6708 17.5648 21.2653 16.6492 22.8608C16.4487 23.2101 16.2394 23.5481 16.0063 23.8762C15.9776 23.9165 15.9472 23.9556 15.9192 23.9963C15.9072 24.0137 15.8692 24.0631 15.8861 24.0504C15.9106 24.032 15.9253 24.0032 15.9432 23.9783C17.1231 22.3396 18.1348 20.5897 19.4821 19.0725C20.3823 18.0587 21.3895 17.1751 22.5314 16.4438C22.5416 16.4372 23.3551 15.8772 23.5378 16.0142C23.689 16.1275 23.5103 16.6617 23.4867 16.7502C23.313 17.4027 23.0645 18.0413 22.7717 18.6489C22.0697 20.1055 21.0759 21.328 19.8096 22.332C19.4104 22.6485 18.9785 22.9384 18.5448 23.2062C18.2567 23.3842 18.4154 23.1144 18.5058 22.9028C19.2499 21.1606 20.3065 19.5631 21.4919 18.0901C21.9145 17.565 23.1487 16.2504 23.1443 16.9245C23.1411 17.3903 22.9286 17.9137 22.7657 18.3334C22.4294 19.2003 22.0126 20.0441 21.546 20.8479C20.8444 22.0567 20.0146 23.1344 18.8663 23.9423C18.8514 23.9527 18.5119 24.2519 18.4547 24.1195C18.3376 23.8488 18.5034 23.2895 18.5719 23.047C18.9485 21.7127 19.8733 20.271 21.1855 19.7003C21.8794 19.3986 23.6336 19.0547 23.7992 20.193C23.9633 21.3217 23.0746 22.5944 22.4833 23.4736C22.342 23.6837 22.1309 24.0781 21.9065 24.2307C21.6825 24.383 22.09 23.7169 22.231 23.4856C23.458 21.4733 25.2089 19.7234 27.3982 18.7871C28.1336 18.4725 28.9453 18.2698 29.7445 18.2223C29.985 18.208 30.5327 18.162 30.7208 18.4145C31.0927 18.9135 29.8781 20.0499 29.5853 20.3072C28.8409 20.9613 27.9362 21.1336 27.0557 20.6016C26.523 20.2797 26.1006 19.7874 25.7459 19.2858C25.5346 18.9869 25.2099 18.5431 25.1931 18.1502C25.1472 17.0738 29.5085 18.8163 30.0149 19.1446C30.4191 19.4066 29.7228 19.585 29.5252 19.6583C28.8054 19.9251 27.9808 20.1813 27.2029 20.154C26.5988 20.1328 28.0951 19.5828 28.1252 19.5742C29.2256 19.2598 30.3887 19.126 31.529 19.2527C31.7316 19.2752 32.1753 19.2956 32.3251 19.496C32.4688 19.6884 32.3219 20.0626 32.262 20.2441C32.1773 20.5007 32.0716 20.7537 31.9225 20.9801C31.8874 21.0335 31.8151 21.1854 31.7963 21.1243C31.6513 20.6528 32.0471 19.8668 32.262 19.478C32.4604 19.119 32.829 18.5745 33.2714 18.4746C33.7151 18.3744 33.5748 20.6294 33.5748 20.9831C33.5748 21.2701 33.6253 21.424 33.7821 21.0432C34.123 20.2153 34.3842 19.3413 34.8336 18.5617C35.0028 18.2682 35.3137 18.0274 35.3743 18.5257C35.4589 19.2211 35.2883 19.9769 35.0259 20.6166C34.8184 21.1224 34.5571 21.6135 34.2718 22.0797C33.9639 22.5827 34.0624 21.8276 34.0615 21.593C34.0594 21.032 34.2086 19.3847 34.0134 19.9106C33.8674 20.3043 33.8103 20.7467 33.71 21.1514C33.4901 22.0391 33.2049 22.9036 32.8899 23.762C32.2548 25.4923 31.4343 27.1135 30.6848 28.791C30.6309 28.9117 30.4952 29.269 30.5887 29.1756C30.9875 28.7767 31.3278 28.2469 31.6341 27.7816C32.2466 26.8512 32.6284 25.824 33.1843 24.8736C33.4721 24.3815 32.861 25.9678 32.6616 26.5018C32.1976 27.7443 31.7057 28.9683 31.0693 30.1339C30.8235 30.5843 30.5617 31.0258 30.3063 31.4708C30.273 31.5287 30.2389 31.5862 30.2071 31.645C30.1899 31.6769 30.2588 31.5938 30.2792 31.5639C31.3731 29.9669 32.2186 28.2001 32.974 26.4237C33.4806 25.2325 33.851 23.9297 34.4491 22.7796C34.4923 22.6964 34.4337 22.9669 34.416 23.059C34.2956 23.6873 34.1609 24.3117 33.9984 24.9306C33.6539 26.2428 33.109 27.4806 32.6285 28.746C32.6218 28.7638 32.2091 29.8626 32.3431 29.5721C32.4465 29.3481 32.5432 29.0413 32.7096 28.8541C32.8398 28.7077 32.8157 29.2383 32.8058 29.4339C32.7673 30.1924 32.5577 30.9245 32.4633 31.6751C32.4581 31.7165 32.3759 32.2455 32.4753 32.2639C32.7043 32.3063 32.7806 31.7769 32.8178 31.645C32.8634 31.4829 32.9506 31.454 33.0341 31.621C33.1816 31.9161 33.1192 32.1615 32.8358 32.348C32.3321 32.6794 31.5175 32.5595 30.9612 32.4982C29.4926 32.3365 27.9998 32.0191 26.563 31.6811C26.4421 31.6526 24.7915 31.3421 25.5777 31.0742C26.4261 30.7851 27.3908 30.7124 28.2814 30.7077C28.7438 30.7053 28.6338 30.8351 28.4016 31.1463C28.0165 31.6625 27.5776 32.0794 26.9836 32.348C26.213 32.6965 27.2381 31.4736 27.3261 31.3807C28.3409 30.3087 29.5144 29.3126 30.829 28.6288C30.9447 28.5686 31.449 28.2613 31.6281 28.3164C31.8173 28.3746 31.4792 28.6888 31.3577 28.8451C30.7347 29.6472 29.9472 30.3252 29.1406 30.936C29.0356 31.0156 28.9482 31.1319 28.8222 31.1704C28.8047 31.1757 28.8232 31.1327 28.8312 31.1163C28.9673 30.8389 29.1353 30.5784 29.2848 30.3082C30.4977 28.1165 31.3816 25.7591 32.2049 23.3985C32.4128 22.8025 32.6023 22.2004 32.8118 21.605C32.8544 21.4837 32.894 21.4032 32.8178 21.635C32.384 22.9551 31.5891 24.1684 30.799 25.2972C30.2552 26.0739 29.683 26.8473 29.0145 27.5233C28.6795 27.862 28.2079 28.3369 27.7317 28.4876C27.681 28.5037 27.5939 28.5273 27.5724 28.4786C27.4762 28.26 27.7139 28.0203 27.8188 27.8057C28.2231 26.9785 28.6286 26.1603 28.9964 25.3152C29.7919 23.4875 30.5415 21.6542 31.4959 19.9016C31.5929 19.7235 31.6901 19.5418 31.4959 19.8385C31.0653 20.4966 30.6412 21.16 30.2251 21.8273C28.5639 24.4915 27.0495 27.2298 25.1481 29.7374C24.3801 30.7501 23.5732 31.7361 22.7477 32.7025C22.6357 32.8336 22.5226 32.9638 22.4052 33.09C22.2581 33.2483 22.2415 33.2662 22.3151 33.09C22.9205 31.6413 23.5316 30.1859 24.2168 28.773C25.0057 27.1461 25.8503 25.1363 27.2931 23.9633C28.4758 23.0017 27.6941 25.1354 27.5154 25.5315C26.7194 27.295 25.559 28.9958 24.2828 30.4464C24.0111 30.7552 23.071 31.916 22.5044 31.645C21.8266 31.3209 22.2537 29.8536 22.3902 29.4039C22.9106 27.6889 24.2459 26.318 25.5236 25.1199C26.0442 24.6317 26.6542 24.0887 27.3321 23.8161C27.6013 23.7078 27.615 23.8263 27.5063 24.0624C26.8772 25.4301 25.7254 26.684 24.6223 27.6795C23.3118 28.8621 21.7636 29.827 20.104 30.4373C20.0714 30.4493 19.4236 30.718 19.3259 30.6146C19.3046 30.592 19.3152 30.5493 19.3289 30.5215C19.4224 30.3316 19.8658 29.7523 19.9177 29.6863C21.7035 27.4188 23.74 25.223 26.0283 23.4556C26.9442 22.7481 27.9266 22.1243 28.9574 21.599C29.1881 21.4814 29.807 21.1721 29.7114 21.4127C29.4982 21.9498 28.7737 22.5024 28.3806 22.8457C27.3804 23.7191 26.3147 24.5239 25.2472 25.3122C24.3566 25.9698 23.4487 26.5953 22.5074 27.1778C22.1685 27.3875 21.8068 27.5784 21.4859 27.8177C21.4677 27.8313 21.6819 26.9074 21.7143 26.7842C22.1003 25.3162 22.7375 23.9684 23.9133 22.9629C24.5083 22.4541 25.2001 22.0648 25.9141 21.7522C25.9874 21.7201 26.7166 21.3547 26.8815 21.4668C26.9116 21.4873 26.8849 21.5436 26.8665 21.575C26.7422 21.7857 26.3548 22.1159 26.2296 22.2269C25.2692 23.0778 24.2587 23.8729 23.2824 24.7053C21.259 26.4307 19.3339 28.354 17.1659 29.9026C16.8482 30.1295 16.7253 30.1347 16.8354 29.7223C17.004 29.0914 17.2745 28.472 17.5264 27.8718C17.8694 27.0546 18.2458 26.2556 18.698 25.4924C19.0241 24.9423 19.4063 24.5048 19.7856 24.0023" stroke="#0075FF" stroke-width="3" stroke-linecap="round"/>
<path d="M21.4619 23.6779C20.8398 24.6888 20.2044 25.6426 19.3379 26.4628C18.9641 26.8166 18.5248 27.2578 18.0491 27.4812C17.792 27.602 17.522 27.1966 17.4152 27.0366C17.099 26.5621 16.9255 26.0741 17.3702 25.6126C18.2866 24.6614 19.7033 24.1643 20.9362 23.798C21.0616 23.7608 22.5152 23.1925 22.3271 23.768C21.8694 25.1682 20.9816 26.5142 20.1761 27.7305C19.719 28.4207 19.2322 29.1125 18.662 29.7163C18.4891 29.8994 18.2222 30.2001 17.932 30.1759C17.7054 30.1571 17.5445 30.0267 17.3732 29.8845C16.8128 29.4197 16.2837 28.8097 15.9402 28.1661C15.2941 26.9558 15.7445 25.754 16.5681 24.7594C17.1807 24.0195 18.0601 23.2557 18.9744 22.9028C19.0515 22.873 19.1223 22.8725 19.1246 22.9809C19.1378 23.5808 18.8382 24.3335 18.665 24.8705C17.9371 27.1277 17.0844 29.364 16.1625 31.5489C16.0799 31.7447 15.7053 32.6035 15.5556 32.8707C15.4031 33.1431 15.2838 33.2374 15.0569 32.9939C14.5689 32.4699 14.1194 31.6578 13.9754 30.954C13.7475 29.84 15.3467 29.6104 16.1204 29.5841C17.0182 29.5536 18.1736 29.7386 18.7161 30.5455C19.0991 31.1152 19.1598 31.9146 19.1787 32.5823C19.197 33.228 18.937 33.1972 18.4457 32.8557C17.4047 32.1321 16.4271 31.3219 15.3754 30.6116C15.3133 30.5696 14.4314 29.9612 14.4561 29.9596C15.0681 29.9202 15.7395 30.1931 16.2947 30.4073C17.0386 30.6942 17.7678 31.0197 18.5088 31.3145C18.5261 31.3214 18.9733 31.4528 18.9985 31.5188C19.0519 31.6592 18.701 31.5669 18.5508 31.5699C17.8012 31.5846 17.0504 31.5729 16.3007 31.5729C16.0824 31.5729 15.8641 31.5729 15.6458 31.5729C15.6177 31.5729 15.5336 31.5729 15.5617 31.5729C15.7511 31.5729 15.8034 31.5719 16.0483 31.5819C16.875 31.6157 17.6976 31.715 18.5118 31.8613C18.9232 31.9352 18.6607 32.1775 18.4156 32.342C17.9441 32.6585 17.3719 32.8488 16.8144 32.9368C16.6151 32.9683 16.0095 32.9956 16.2106 32.9789C16.5921 32.9471 16.9685 32.8721 17.3431 32.7956C17.4243 32.779 17.5059 32.7639 17.5865 32.7445C17.743 32.7069 17.597 32.7183 17.5204 32.7205C16.9964 32.7357 16.4736 32.7549 15.9492 32.7596C14.8241 32.7696 13.6483 32.8167 12.5454 32.5523C11.9459 32.4085 11.1422 32.1419 10.9502 31.4768C10.8233 31.0371 10.8844 30.4468 11.0493 30.0227C11.0558 30.0061 11.2569 29.6607 11.2656 29.7133C11.4083 30.5689 10.504 31.5936 9.75454 31.8493C9.24421 32.0234 8.74773 31.8743 8.35158 31.5188C7.42962 30.6916 6.76094 29.2224 6.6512 28.0039C6.54457 26.8199 6.92369 25.7283 7.61555 24.7864C7.75062 24.6025 8.08676 24.0566 8.0812 24.2847C8.06135 25.0984 7.78606 25.9533 7.60954 26.7391C7.33677 27.9534 7.14319 29.2342 6.71729 30.4073C6.6832 30.5012 6.36028 31.4048 6.13448 31.3596C5.90965 31.3146 5.91628 30.1433 5.91217 30.0287C5.85893 28.5457 6.05697 27.06 6.35078 25.6096C6.48277 24.958 6.64015 24.3104 6.82544 23.6719C6.86436 23.5377 6.9394 23.1373 6.96063 23.2753C6.97973 23.3994 6.94412 23.526 6.93059 23.6508C6.86587 24.2483 6.77073 24.8396 6.63918 25.4263C6.37885 26.5874 6.04274 27.7496 5.62977 28.8661C5.51694 29.1712 5.48655 29.2342 5.3654 29.503C5.33963 29.5602 5.31504 29.618 5.28729 29.6742C5.24521 29.7596 5.25166 29.7212 5.26326 29.6382C5.50102 27.9382 5.79582 26.2553 5.95122 24.5431C6.166 22.1767 6.24874 19.7986 6.26666 17.4231C6.26713 17.361 6.26666 17.1748 6.26666 17.2369C6.26666 17.8217 6.26666 18.4065 6.26666 18.9913C6.26666 20.8099 6.26666 22.6284 6.26666 24.4469C6.26666 25.8813 6.079 27.5042 6.56107 28.8871C6.70752 29.3073 6.91826 29.7625 7.42929 29.6682C8.37347 29.4941 9.24986 28.7932 9.83565 28.064C10.3147 27.4677 10.6091 26.7801 10.8481 26.0632C11.0642 25.4147 10.652 27.4185 10.4876 28.082C10.246 29.0565 9.88812 29.9826 9.43309 30.8759C9.41017 30.9209 8.92195 31.7435 9.19576 31.5549C9.8793 31.084 10.3346 30.1231 10.7489 29.4399C11.236 28.6367 11.6878 27.8092 12.233 27.0426C12.6507 26.4553 13.1281 26.073 13.6209 25.5705" stroke="#0075FF" stroke-width="3" stroke-linecap="round"/>
<path d="M13.7291 26.0571C13.2788 27.312 12.8529 28.6076 12.227 29.7883C12.0964 30.0348 11.9421 30.2584 11.7824 30.4853C11.6994 30.6032 11.8666 30.2095 11.9056 30.0707C12.1673 29.1392 12.275 27.9649 12.8849 27.1807C13.2162 26.7548 14.1023 26.2294 14.6063 26.694C15.0693 27.1208 15.0998 27.8433 15.057 28.4244C15.037 28.6948 14.9894 28.9614 14.9218 29.2236C14.9184 29.2366 14.8154 29.5719 14.8527 29.521C15.1662 29.0934 15.5768 29.2178 16.0123 29.4278C17.2258 30.0132 18.4087 30.7532 19.5002 31.5428C19.7446 31.7196 19.9656 31.7059 20.2723 31.7591C20.9548 31.8774 21.6341 32.0182 22.3091 32.1737C22.6122 32.2435 23.2431 32.3059 23.5108 32.5342C23.5792 32.5925 22.5423 32.789 22.5134 32.7925C21.3313 32.9378 20.14 32.9944 18.9774 33.2762C18.0282 33.5063 20.8965 32.9109 21.8585 32.7415C22.2417 32.674 22.6288 32.6134 23.0061 32.5162C23.033 32.5092 23.1058 32.471 23.0782 32.4741C22.932 32.4907 22.6008 32.5586 22.4894 32.5822C21.1544 32.8653 19.8386 33.2428 18.4607 33.2282C18.0351 33.2236 17.5803 33.1913 17.1719 33.0569C16.8336 32.9455 17.0232 32.8475 17.1359 32.6543" stroke="#0075FF" stroke-width="3" stroke-linecap="round"/>
</svg>
