<svg width="52" height="14" viewBox="0 0 52 14" fill="none" xmlns="http://www.w3.org/2000/svg">
<path fill-rule="evenodd" clip-rule="evenodd" d="M4.46227 3.621C4.79099 3.27439 4.79099 2.71292 4.46227 2.36631L4.45123 2.3545C4.12249 2.00789 3.58991 2.00789 3.26118 2.3545L0.246548 5.53233C-0.0821826 5.87894 -0.0821826 6.4415 0.246548 6.78812L3.26118 9.96573C3.58991 10.3123 4.12249 10.3123 4.45123 9.96573L4.46227 9.95414C4.79099 9.60752 4.79099 9.04607 4.46227 8.69945L2.64959 6.78812C2.32085 6.4415 2.32085 5.87894 2.64959 5.53233L4.46227 3.621ZM16.0451 5.53233L13.0305 2.3545C12.7026 2.00789 12.1691 2.00789 11.8404 2.3545L11.8294 2.36631C11.5006 2.71292 11.5006 3.27439 11.8294 3.621L13.643 5.53233C13.9716 5.87894 13.9716 6.4415 13.643 6.78812L11.8294 8.69945C11.5006 9.04607 11.5006 9.60752 11.8294 9.95414L11.8404 9.96573C12.1691 10.3123 12.7026 10.3123 13.0305 9.96573L16.0451 6.78812C16.3739 6.4415 16.3739 5.87894 16.0451 5.53233ZM10.9835 1.82008L6.64269 11.5204C6.50206 11.8254 6.25535 12.2022 5.93706 12.2022H5.9202C5.30129 12.2022 4.89797 11.3243 5.17163 10.7324L9.48713 1.12387C9.62776 0.819801 10.149 0.581356 10.149 0.581356V0.558838C10.991 0.558838 11.2562 1.22817 10.9835 1.82008Z" fill="#4056CA"/>
<path d="M25.9815 11.2196C24.8693 10.3626 23.8875 9.42648 23.036 8.41118C22.1931 7.39588 21.4894 6.32468 20.9246 5.19761L22.4625 4.33134C22.5233 4.45243 22.5798 4.5642 22.6319 4.66667C22.6841 4.75981 22.7492 4.86693 22.8274 4.98802C23.0968 4.94145 23.3488 4.85296 23.5834 4.72256C23.8267 4.59215 24.0222 4.4012 24.1699 4.1497C24.3263 3.88889 24.4045 3.55356 24.4045 3.14371C24.4045 2.62209 24.2568 2.21224 23.9613 1.91417C23.6659 1.6161 23.2662 1.46707 22.7623 1.46707C22.4582 1.46707 22.1367 1.47172 21.7978 1.48104C21.4676 1.49035 21.1505 1.50898 20.8464 1.53693L20.8333 11.0379L19.2302 11.2196L19.0087 1.69062L18.37 1.78842L18.1094 0.558881C18.3527 0.502993 18.6698 0.447106 19.0608 0.391218C19.4518 0.326014 19.8776 0.265468 20.3381 0.209581C20.7986 0.144377 21.2504 0.0931459 21.6935 0.0558883C22.1454 0.0186294 22.5494 0 22.9056 0C23.9135 0 24.7129 0.270126 25.3038 0.810379C25.8946 1.35063 26.19 2.12841 26.19 3.14371C26.19 3.74917 26.0554 4.25682 25.786 4.66667C25.5166 5.07651 25.1647 5.39787 24.7303 5.63074C24.3045 5.85429 23.8484 5.99401 23.3618 6.0499C24.1786 7.40053 25.3646 8.82103 26.9199 10.3114L25.9815 11.2196ZM34.565 9.66866C34.3131 10.0319 34.0437 10.3253 33.757 10.5489C33.4789 10.7725 33.1574 10.9355 32.7925 11.0379C32.4276 11.1404 31.9801 11.1916 31.4501 11.1916C30.6941 11.1916 30.0468 11.0146 29.5081 10.6607C28.9694 10.2974 28.5567 9.81304 28.2699 9.20759C27.9832 8.59281 27.8398 7.90818 27.8398 7.15369C27.8398 6.38989 27.9875 5.70526 28.283 5.0998C28.5784 4.48503 28.9911 4.00067 29.5211 3.64671C30.0598 3.29275 30.6854 3.11577 31.3979 3.11577C32.093 3.11577 32.6882 3.28809 33.1835 3.63273C33.6875 3.96806 34.0741 4.45243 34.3435 5.08583C34.6128 5.70991 34.7475 6.45509 34.7475 7.32136V7.55888H30.0294L29.7427 6.46906L32.9489 6.18962C32.9228 5.69594 32.7925 5.29541 32.5579 4.98802C32.332 4.67132 31.9671 4.51297 31.4631 4.51297C30.8809 4.51297 30.3987 4.74584 30.0164 5.21158C29.6428 5.668 29.456 6.32003 29.456 7.16767C29.456 7.77312 29.5602 8.27611 29.7688 8.67665C29.986 9.06786 30.2553 9.36128 30.5768 9.55689C30.907 9.74318 31.2372 9.83633 31.5674 9.83633C32.1235 9.83633 32.6187 9.73852 33.0532 9.54291C33.4963 9.33799 33.8439 9.06321 34.0958 8.71856L34.565 9.66866ZM36.4719 14L36.2112 3.04591L38.062 3.28343V4.03792C38.2184 3.74917 38.479 3.52562 38.844 3.36727C39.2089 3.1996 39.6129 3.11577 40.0561 3.11577C41.0118 3.11577 41.7765 3.46041 42.3499 4.1497C42.9234 4.82967 43.2101 5.831 43.2101 7.15369C43.2101 8.4857 42.9191 9.49168 42.3369 10.1717C41.7548 10.8516 40.9988 11.1916 40.0691 11.1916C39.5912 11.1916 39.1742 11.1124 38.8179 10.9541C38.4617 10.7957 38.2097 10.6094 38.062 10.3952V13.6647L36.4719 14ZM38.0359 8.80239C38.1749 9.10047 38.3791 9.35196 38.6485 9.55689C38.9178 9.76181 39.2437 9.86427 39.626 9.86427C39.9562 9.86427 40.2646 9.78044 40.5513 9.61278C40.8468 9.4358 41.0814 9.1517 41.2551 8.76048C41.4376 8.35995 41.5288 7.82435 41.5288 7.15369C41.5288 6.49235 41.442 5.97073 41.2682 5.58882C41.0944 5.19761 40.8641 4.91816 40.5774 4.7505C40.2907 4.58283 39.9692 4.499 39.6129 4.499C39.3262 4.499 39.0612 4.57818 38.8179 4.73653C38.5833 4.88556 38.3922 5.09049 38.2444 5.3513C38.1054 5.61211 38.0359 5.91018 38.0359 6.24551V8.80239ZM48.9893 7.90818V11.0379H47.4123V7.90818H44.4798V6.3014H47.4123V3.28343H48.9893V6.3014H52V7.90818H48.9893Z" fill="#4056CA"/>
</svg>
